# AST/ASF file generated using VICON BodyLanguage
# -----------------------------------------------
:version 1.10
:name VICON
:units
  mass 1.0
  length 0.45
  angle deg
:documentation
   .ast/.asf automatically generated from VICON data using
   VICON BodyBuilder and BodyLanguage model FoxedUp or BRILLIANT.MOD
:root
   order TX TY TZ RX RY RZ
   axis XYZ
   position 0 0 0  
   orientation 0 0 0 
:bonedata
  begin
     id 1 
     name lhipjoint
     direction 0.700308 -0.549349 0.455834 
     length 2.59063 
     axis 0 0 0  XYZ
  end
  begin
     id 2 
     name lfemur
     direction 0.34202 -0.939693 0  
     length 6.31066  
     axis 0 0 20  XYZ
    dof rx ry rz
    limits (-160.0 20.0)
           (-70.0 70.0)
           (-60.0 70.0)
  end
  begin
     id 3 
     name ltibia
     direction 0.34202 -0.939693 0   
     length 7.36093   
     axis 0 0 20   XYZ
    dof rx
    limits (-10.0 170.0)
  end
  begin
     id 4 
     name lfoot
     direction 0.0905332 -0.248738 0.96433   
     length 2.0233   
     axis -90 7.62852e-016 20   XYZ
    dof rx rz
    limits (-45.0 90.0)
           (-70.0 20.0)
  end
  begin
     id 5 
     name ltoes
     direction 1.53573e-011 -4.21855e-011 1   
     length 1.01524   
     axis -90 7.62852e-016 20   XYZ
    dof rx
    limits (-90.0 20.0)
  end
  begin
     id 6 
     name rhipjoint
     direction -0.61416 -0.607328 0.503944   
     length 2.34332  
     axis 0 0 0  XYZ 
  end
  begin
     id 7 
     name rfemur
     direction -0.34202 -0.939693 0   
     length 6.58548   
     axis 0 0 -20   XYZ
    dof rx ry rz
    limits (-160.0 20.0)
           (-70.0 70.0)
           (-70.0 60.0)
  end
  begin
     id 8 
     name rtibia
     direction -0.34202 -0.939693 0   
     length 7.20707   
     axis 0 0 -20   XYZ
    dof rx
    limits (-10.0 170.0)
 end
 begin
     id 9 
     name rfoot
     direction -0.136772 -0.375778 0.916561   
     length 1.92184  
     axis -90 -7.62852e-016 -20   XYZ
    dof rx rz
    limits (-45.0 90.0)
           (-20.0 70.0)
  end
  begin
     id 10 
     name rtoes
     direction -1.53535e-011 -4.21828e-011 1   
     length 0.951089   
     axis -90 -7.62852e-016 -20   XYZ
    dof rx
    limits (-90.0 20.0)
  end
  begin
     id 11 
     name lowerback
     direction -0.0444974 0.988086 -0.147332   
     length 1.9609   
     axis 0 0 0   XYZ
    dof rx ry rz
    limits (-20.0 45.0)
           (-30.0 30.0)
           (-30.0 30.0)
  end
  begin
     id 12 
     name upperback
     direction 0.00613146 0.999513 0.0306081   
     length 1.94944   
     axis 0 0 0   XYZ
    dof rx ry rz
    limits (-20.0 45.0)
           (-30.0 30.0)
           (-30.0 30.0)
  end
  begin
     id 13 
     name thorax
     direction 0.0254621 0.994518 0.101418   
     length 2.0119   
     axis 0 0 0   XYZ
    dof rx ry rz
    limits (-20.0 45.0)
           (-30.0 30.0)
           (-30.0 30.0)
  end
  begin
     id 14 
     name lowerneck
     direction 0.0168698 0.977854 0.208608   
     length 1.6375   
     axis 0 0 0   XYZ
    dof rx ry rz
    limits (-20.0 45.0)
           (-30.0 30.0)
           (-30.0 30.0)
  end
  begin
     id 15 
     name upperneck
     direction -0.0283988 0.989338 -0.142843   
     length 1.6851   
     axis 0 0 0   XYZ
    dof rx ry rz
    limits (-20.0 45.0)
           (-30.0 30.0)
           (-30.0 30.0)
  end
  begin
     id 16
     name head
     direction -0.0129422 0.99741 -0.0707489  
     length 1.69029  
     axis 0 0 0   XYZ
    dof rx ry rz
    limits (-20.0 45.0)
           (-30.0 30.0)
           (-30.0 30.0)
  end
  begin
     id 17 
     name lclavicle
     direction 0.820295 0.564628 -0.0911715  
     length 3.16484  
     axis 0 0 0   XYZ
    dof ry rz
    limits (-20.0 10.0)
           (0.0 20.0)
  end
  begin
     id 18 
     name lhumerus
     direction 1 -4.48969e-011 1.00186e-027   
     length 5.17853   
     axis 180 -30 -90   XYZ
    dof rx ry rz
    limits (-60.0 90.0)
           (-90.0 90.0)
           (-90.0 90.0)
  end
  begin
     id 19
     name lradius
     direction 1 -4.48966e-011 -1.52922e-027   
     length 3.40399   
     axis 180 -30 -90   XYZ
    dof rx
    limits (-10.0 170.0)
  end
  begin
     id 20
     name lwrist
     direction 1 -4.48981e-011 -3.80893e-027   
     length 1.70199   
     axis 1.1049e-015 90 90   XYZ
    dof ry
    limits (-180.0 0.0)
 end
  begin
     id 21 
     name lhand
     direction 1 -4.48957e-011 -7.61786e-027   
     length 0.708964   
     axis 4.86085e-015 90 90   XYZ
    dof rx rz
    limits (-90.0 90.0)
           (-45.0 45.0)
  end
  begin
     id 22 
     name lfingers
     direction 1 -4.48929e-011 -1.52357e-026   
     length 0.571585   
     axis 9.7217e-015 90 90   XYZ
    dof rx
    limits (0.0 90.0)
  end
  begin
     id 23
     name lthumb
     direction 0.707107 -6.34905e-011 0.707107   
     length 0.820685   
     axis -90 45 2.85299e-015   XYZ
    dof rx rz
    limits (-45.0 45.0)
           (-45.0 45.0)
  end
  begin
     id 24 
     name rclavicle
     direction -0.858602 0.463947 -0.218075   
     length 3.35137  
     axis 0 0 0   XYZ 
    dof ry rz
    limits (-10.0 20.0)
           (-20.0 0.0)
  end
  begin
     id 25 
     name rhumerus
     direction -1 -4.48969e-011 -1.98511e-027  
     length 5.42351   
     axis 180 30 90   XYZ
    dof rx ry rz
    limits (-90.0 60.0)
           (-90.0 90.0)
           (-90.0 90.0)
  end
  begin
     id 26 
     name rradius
     direction -1 -4.48961e-011 -2.82624e-027   
     length 3.42066   
     axis 180 30 90   XYZ
    dof rx
    limits (-10.0 170.0)
  end
  begin
     id 27 
     name rwrist
     direction -1 -4.48966e-011 -3.80893e-027   
     length 1.71033   
     axis 1.1049e-015 -90 -90   XYZ
    dof ry
    limits (-180.0 0.0)
  end
  begin
     id 28
     name rhand
     direction -1 -4.48964e-011 -7.61786e-027   
     length 0.743608   
     axis 4.86085e-015 -90 -90   XYZ
    dof rx rz
    limits (-90.0 90.0)
           (-45.0 45.0)
  end
  begin
     id 29
     name rfingers
     direction -1 -4.48961e-011 -1.52357e-026   
     length 0.599516   
     axis 9.7217e-015 -90 -90   XYZ
    dof rx
    limits (0.0 90.0)
  end
  begin
     id 30
     name rthumb
     direction -0.707107 -6.34913e-011 0.707107   
     length 0.860789   
     axis -90 -45 -2.85299e-015   XYZ
    dof rx rz
    limits (-45.0 45.0)
           (-45.0 45.0)
  end
:hierarchy
  begin
    root lhipjoint rhipjoint lowerback
    lhipjoint lfemur
    lfemur ltibia
    ltibia lfoot
    lfoot ltoes
    rhipjoint rfemur
    rfemur rtibia
    rtibia rfoot
    rfoot rtoes
    lowerback upperback
    upperback thorax
    thorax lowerneck lclavicle rclavicle
    lowerneck upperneck
    upperneck head
    lclavicle lhumerus
    lhumerus lradius
    lradius lwrist
    lwrist lhand lthumb
    lhand lfingers
    rclavicle rhumerus
    rhumerus rradius
    rradius rwrist
    rwrist rhand rthumb
    rhand rfingers
  end

#!OML:ASF E:\mmandel\Project 1\Capture day 1\Session 2\Subject.ASF
:FULLY-SPECIFIED
:DEGREES
234
root 21.6966 2.97784 0.154371 180.668 82.4314 105.657
lowerback 7.5409 -0.383621 -4.67225
upperback -2.57076 -0.945174 0.729495
thorax -6.85752 -0.24329 3.52264
lowerneck -17.0988 0.429696 -1.52491
upperneck -12.7348 1.52492 -2.98085
head -1.23529 1.25275 -0.636671
rclavicle 3.18055e-015 3.29983e-014
rhumerus -53.2269 10.7754 -64.1497
rradius 106.263
rwrist -9.67332
rhand -39.847 77.0268
rfingers 7.12502
rthumb -12.8203 47.4405
lclavicle 3.18055e-015 3.29983e-014
lhumerus -43.1477 -26.5225 65.9031
lradius 103.923
lwrist 2.4433
lhand -39.9318 272.424
lfingers 7.12502
lthumb -12.902 -57.9951
rfemur 14.3982 -9.17375 19.4551
rtibia 20.5086
rfoot -24.4448 -21.3187
rtoes -8.73955
lfemur -34.0217 70.474 19.243
ltibia 96.5292
lfoot 0.0598617 1.89668
ltoes 6.89217
235
root 21.6693 3.03478 0.158444 179.807 82.4765 105.508
lowerback 8.07067 -0.316506 -4.7029
upperback -2.38787 -0.884202 0.69754
thorax -6.97335 -0.213061 3.50583
lowerneck -17.0655 0.292579 -1.75538
upperneck -12.6227 1.3877 -2.66515
head -1.20897 1.18586 -0.503703
rclavicle 5.64548e-014 4.94974e-014
rhumerus -52.4634 10.9683 -64.1806
rradius 105.897
rwrist -9.69583
rhand -39.8655 76.3439
rfingers 7.12502
rthumb -12.8381 46.7587
lclavicle 5.64548e-014 4.94974e-014
lhumerus -42.049 -26.8848 65.5304
lradius 103.286
lwrist 2.87371
lhand -39.894 272.828
lfingers 7.12502
lthumb -12.8656 -57.5888
rfemur 14.6659 -9.39686 19.1986
rtibia 20.9459
rfoot -23.8211 -21.0233
rtoes -7.64573
lfemur -33.0697 70.0138 20.1161
ltibia 96.5931
lfoot 0.0607888 1.8324
ltoes 7.41915
236
root 21.6429 3.0959 0.164684 178.292 82.4823 104.695
lowerback 8.70986 -0.269973 -4.85909
upperback -2.22293 -0.871425 0.66049
thorax -7.1654 -0.198342 3.56291
lowerneck -16.8209 0.328908 -1.71098
upperneck -12.8608 1.41569 -2.77594
head -1.32144 1.20753 -0.548716
rclavicle 1.51076e-014 3.51849e-014
rhumerus -51.5398 11.1198 -64.2505
rradius 105.402
rwrist -9.78193
rhand -39.735 75.7547
rfingers 7.12502
rthumb -12.7123 46.1616
lclavicle 1.51076e-014 3.51849e-014
lhumerus -41.0309 -27.1765 65.2444
lradius 102.616
lwrist 3.29405
lhand -39.8529 273.005
lfingers 7.12502
lthumb -12.826 -57.4093
rfemur 14.9532 -9.39045 18.9945
rtibia 21.3863
rfoot -23.6328 -20.8889
rtoes -6.70972
lfemur -32.3921 69.4747 20.6053
ltibia 96.6392
lfoot 0.175149 1.89076
ltoes 9.33733
237
root 21.6145 3.16062 0.172776 177.95 82.5089 105.045
lowerback 9.31877 -0.235625 -4.92747
upperback -1.96802 -0.856785 0.701013
thorax -7.24291 -0.189548 3.65062
lowerneck -17.4416 0.266743 -1.23963
upperneck -12.6127 1.25811 -3.2465
head -1.14281 1.10202 -0.775098
rclavicle -1.35174e-014 -3.75703e-014
rhumerus -50.4951 11.2684 -64.259
rradius 104.882
rwrist -9.82562
rhand -39.6504 75.4257
rfingers 7.12502
rthumb -12.6308 45.8276
lclavicle -1.35174e-014 -3.75703e-014
lhumerus -39.7869 -27.3587 64.9249
lradius 101.803
lwrist 3.63298
lhand -39.9519 272.93
lfingers 7.12502
lthumb -12.9214 -57.4905
rfemur 15.2192 -9.31843 19.0025
rtibia 21.8144
rfoot -23.8623 -20.9075
rtoes -6.73586
lfemur -31.8506 69.0112 21.1943
ltibia 96.7293
lfoot 0.346587 2.04028
ltoes 11.2543
238
root 21.5871 3.22555 0.17922 178.737 82.4964 106.391
lowerback 9.79259 -0.227255 -4.82564
upperback -1.71525 -0.847825 0.748898
thorax -7.24507 -0.192624 3.64821
lowerneck -17.4026 0.286923 -1.19394
upperneck -13.1045 1.29779 -3.1828
head -1.30918 1.14515 -0.766648
rclavicle 8.42847e-014 6.89783e-014
rhumerus -49.4644 11.4164 -64.2195
rradius 104.482
rwrist -9.8604
rhand -39.6761 75.0115
rfingers 7.12502
rthumb -12.6555 45.4149
lclavicle 8.42847e-014 6.89783e-014
lhumerus -38.3238 -27.5181 64.4323
lradius 101.005
lwrist 3.95723
lhand -40.0048 273.167
lfingers 7.12502
lthumb -12.9724 -57.2568
rfemur 15.3297 -9.17661 19.2278
rtibia 22.2395
rfoot -24.2971 -21.0302
rtoes -6.94981
lfemur -31.8023 68.6508 21.4963
ltibia 96.8695
lfoot 0.523235 2.22427
ltoes 12.9888
239
root 21.5543 3.2925 0.184431 179.032 82.4565 107.242
lowerback 10.3509 -0.164792 -4.7075
upperback -1.61503 -0.775595 0.739447
thorax -7.46599 -0.15758 3.56875
lowerneck -17.2823 0.200151 -1.32722
upperneck -13.0617 1.20198 -3.04036
head -1.31584 1.09868 -0.703243
rclavicle -1.74931e-014 -8.11041e-014
rhumerus -48.7993 11.5806 -64.1665
rradius 104.132
rwrist -9.86031
rhand -39.8794 74.6998
rfingers 7.12502
rthumb -12.8515 45.1154
lclavicle -1.74931e-014 -8.11041e-014
lhumerus -37.0577 -27.8527 64.2101
lradius 100.205
lwrist 4.20592
lhand -40.0211 273.373
lfingers 7.12502
lthumb -12.9881 -57.0512
rfemur 15.4462 -9.00748 19.4145
rtibia 22.6417
rfoot -24.7103 -21.0893
rtoes -7.15182
lfemur -31.891 68.241 21.5859
ltibia 97.0282
lfoot 0.554234 2.40949
ltoes 14.5311
240
root 21.5173 3.36362 0.190223 177.858 82.4224 106.792
lowerback 11.0493 -0.0247707 -4.76224
upperback -1.52538 -0.630364 0.716058
thorax -7.78438 -0.0768771 3.56113
lowerneck -16.8579 0.137641 -1.67635
upperneck -13.0837 1.16399 -2.78563
head -1.39003 1.09093 -0.568931
rclavicle 5.00937e-014 3.45885e-014
rhumerus -48.3065 11.6647 -64.0217
rradius 103.738
rwrist -9.87725
rhand -40.0569 74.4916
rfingers 7.12502
rthumb -13.0227 44.9181
lclavicle 5.00937e-014 3.45885e-014
lhumerus -36.0178 -28.3508 64.2365
lradius 99.3989
lwrist 4.53409
lhand -39.9709 273.278
lfingers 7.12502
lthumb -12.9398 -57.1433
rfemur 15.7579 -9.15589 19.2082
rtibia 23.026
rfoot -24.8689 -20.8507
rtoes -7.68884
lfemur -31.5841 67.7038 21.7905
ltibia 97.1517
lfoot 0.418033 2.63128
ltoes 14.9722
241
root 21.4824 3.43579 0.197104 177.097 82.3497 106.806
lowerback 11.8399 0.102164 -4.81269
upperback -1.35181 -0.501589 0.734154
thorax -8.0628 -0.0057603 3.59621
lowerneck -16.5399 0.0905634 -1.84155
upperneck -13.244 1.11598 -2.72798
head -1.4915 1.0789 -0.528631
rclavicle 3.73715e-014 5.74488e-014
rhumerus -47.5496 11.5805 -63.8179
rradius 103.331
rwrist -10.0594
rhand -39.9129 73.9486
rfingers 7.12502
rthumb -12.8838 44.3663
lclavicle 3.73715e-014 5.74488e-014
lhumerus -34.8198 -28.8416 64.0275
lradius 98.6443
lwrist 5.04086
lhand -39.8206 273.314
lfingers 7.12502
lthumb -12.7948 -57.0981
rfemur 16.1205 -9.84687 18.7665
rtibia 23.4421
rfoot -24.6733 -20.2482
rtoes -8.64079
lfemur -31.2571 67.1217 22.07
ltibia 97.2583
lfoot 0.351968 2.87091
ltoes 14.9924
242
root 21.4484 3.50746 0.204539 176.788 82.2631 107.177
lowerback 12.5458 0.135718 -4.78524
upperback -1.18725 -0.482401 0.736857
thorax -8.29103 0.00720284 3.58835
lowerneck -16.385 0.0593316 -1.88457
upperneck -13.3198 1.07079 -2.75627
head -1.53986 1.06034 -0.533606
rclavicle 0 -2.10712e-014
rhumerus -46.6303 11.5802 -63.7634
rradius 102.985
rwrist -10.1875
rhand -39.7236 73.1204
rfingers 7.12502
rthumb -12.7013 43.5267
lclavicle 0 -2.10712e-014
lhumerus -33.5988 -29.2457 63.6354
lradius 97.8593
lwrist 5.47304
lhand -39.789 273.506
lfingers 7.12502
lthumb -12.7644 -56.9045
rfemur 16.3385 -9.87857 18.7614
rtibia 23.8707
rfoot -24.8882 -20.3044
rtoes -9.67398
lfemur -31.2022 66.5666 22.1636
ltibia 97.3759
lfoot 0.209969 3.06312
ltoes 14.736
243
root 21.415 3.58089 0.212273 176.068 82.2231 107.07
lowerback 13.2303 0.169824 -4.78927
upperback -1.07957 -0.469902 0.710423
thorax -8.56749 0.0200073 3.56839
lowerneck -16.3951 0.0205932 -1.90616
upperneck -13.1247 1.01224 -2.79795
head -1.47458 1.02188 -0.542999
rclavicle 2.14687e-014 2.66371e-014
rhumerus -45.8371 11.6698 -63.7643
rradius 102.651
rwrist -10.1282
rhand -39.7092 72.4239
rfingers 7.12502
rthumb -12.6875 42.8293
lclavicle 2.14687e-014 2.66371e-014
lhumerus -32.452 -29.6896 63.2323
lradius 97.1428
lwrist 5.79749
lhand -40.0744 273.604
lfingers 7.12502
lthumb -13.0395 -56.8238
rfemur 16.4641 -9.83522 18.7245
rtibia 24.2753
rfoot -24.9753 -20.4478
rtoes -10.5551
lfemur -31.1869 66.0562 22.1307
ltibia 97.487
lfoot 0.0434881 3.19371
ltoes 14.2407
244
root 21.3801 3.65795 0.217392 176.416 82.1848 108.001
lowerback 13.946 0.221991 -4.62037
upperback -0.994201 -0.402256 0.73669
thorax -8.89098 0.0541268 3.4958
lowerneck -16.6484 -0.109322 -2.03103
upperneck -12.8518 0.88399 -2.45304
head -1.35043 0.949317 -0.414733
rclavicle 5.32743e-014 -2.42517e-014
rhumerus -45.0948 11.7622 -63.6903
rradius 102.107
rwrist -10.0096
rhand -39.8123 72.0401
rfingers 7.12502
rthumb -12.7868 42.4516
lclavicle 5.32743e-014 -2.42517e-014
lhumerus -31.2923 -30.1854 62.8773
lradius 96.4927
lwrist 6.21683
lhand -40.486 273.409
lfingers 7.12502
lthumb -13.4363 -57.0448
rfemur 16.5147 -9.75632 18.8619
rtibia 24.7099
rfoot -24.9427 -20.6554
rtoes -10.1771
lfemur -31.3115 65.5032 22.1382
ltibia 97.6398
lfoot 0.0293775 3.37646
ltoes 14.7789
245
root 21.3445 3.73407 0.222792 177.633 82.2071 109.74
lowerback 14.5582 0.252249 -4.3912
upperback -0.83749 -0.338794 0.807686
thorax -9.07559 0.0794979 3.43502
lowerneck -16.6512 0.00185275 -1.86508
upperneck -12.9512 0.997078 -2.74617
head -1.37977 1.00675 -0.531048
rclavicle 3.26007e-014 2.78299e-015
rhumerus -44.0499 11.8365 -63.6396
rradius 101.371
rwrist -9.90434
rhand -39.9414 72.0439
rfingers 7.12502
rthumb -12.9112 42.4633
lclavicle 3.26007e-014 2.78299e-015
lhumerus -29.988 -30.3939 62.6015
lradius 95.6441
lwrist 6.55209
lhand -40.6034 273.088
lfingers 7.12502
lthumb -13.5494 -57.3729
rfemur 16.4926 -9.71923 19.0932
rtibia 25.1635
rfoot -24.8576 -20.7793
rtoes -9.20181
lfemur -31.3834 65.0091 22.335
ltibia 97.7903
lfoot -0.0247833 3.46107
ltoes 15.284
246
root 21.3049 3.80719 0.231071 178.113 82.3312 110.576
lowerback 14.9565 0.295086 -4.39944
upperback -0.634115 -0.287804 0.868465
thorax -9.08437 0.104682 3.49722
lowerneck -17.8957 -0.099924 -1.86752
upperneck -12.2017 0.935424 -2.49918
head -0.953254 0.953356 -0.444038
rclavicle -2.62396e-014 -4.01545e-014
rhumerus -42.7198 11.8583 -63.5565
rradius 100.737
rwrist -9.85132
rhand -39.9977 72.0322
rfingers 7.12502
rthumb -12.9656 42.455
lclavicle -2.62396e-014 -4.01545e-014
lhumerus -28.5143 -30.3633 62.1755
lradius 94.7346
lwrist 6.82172
lhand -40.3202 273.374
lfingers 7.12502
lthumb -13.2765 -57.0687
rfemur 16.32 -9.84858 19.0906
rtibia 25.5979
rfoot -24.6939 -20.5746
rtoes -8.71078
lfemur -31.5449 64.7391 22.3696
ltibia 97.9291
lfoot -0.0775245 3.36194
ltoes 14.3891
247
root 21.2686 3.88244 0.238625 176.625 82.38 109.431
lowerback 15.3927 0.35302 -4.64443
upperback -0.460503 -0.268515 0.858152
thorax -9.14389 0.125896 3.62492
lowerneck -17.5207 0.0323809 -1.70003
upperneck -12.9326 1.0632 -3.00238
head -1.24209 1.04586 -0.632891
rclavicle 1.03368e-014 -3.06128e-014
rhumerus -41.4739 11.8202 -63.3453
rradius 100.314
rwrist -9.86948
rhand -39.917 71.3086
rfingers 7.12502
rthumb -12.8878 41.7265
lclavicle 1.03368e-014 -3.06128e-014
lhumerus -27.0743 -30.4863 61.5886
lradius 93.9591
lwrist 7.24143
lhand -39.8484 274.25
lfingers 7.12502
lthumb -12.8216 -56.1642
rfemur 16.1583 -9.99223 18.8097
rtibia 26.0104
rfoot -24.5732 -20.3914
rtoes -8.67446
lfemur -31.8597 64.3531 21.8819
ltibia 98.0051
lfoot -0.0630839 3.29882
ltoes 13.6347
248
root 21.2424 3.96156 0.244475 174.293 82.3803 107.499
lowerback 15.8918 0.421774 -4.90958
upperback -0.330488 -0.250681 0.788991
thorax -9.28653 0.148811 3.70156
lowerneck -17.5256 0.0237558 -1.64613
upperneck -13.0391 1.04676 -3.00006
head -1.27604 1.04071 -0.642787
rclavicle 2.22639e-014 9.85972e-014
rhumerus -40.4468 11.7843 -63.1269
rradius 99.9298
rwrist -9.99882
rhand -39.7307 70.395
rfingers 7.12502
rthumb -12.7082 40.8017
lclavicle 2.22639e-014 9.85972e-014
lhumerus -25.7251 -30.7664 61.1078
lradius 93.1686
lwrist 7.58756
lhand -39.7803 274.623
lfingers 7.12502
lthumb -12.756 -55.7865
rfemur 16.0426 -9.8221 18.5888
rtibia 26.43
rfoot -24.6567 -20.5001
rtoes -8.56739
lfemur -32.0664 63.7871 21.2491
ltibia 97.993
lfoot -0.177354 3.3142
ltoes 13.2419
